<?xml version="1.0" encoding="UTF-8" standalone="no"?>
<!DOCTYPE svg PUBLIC "-//W3C//DTD SVG 1.1//EN"
 "http://www.w3.org/Graphics/SVG/1.1/DTD/svg11.dtd">
<!-- Generated by graphviz version 2.40.1 (20161225.0304)
 -->
<!-- Title: %3 Pages: 1 -->
<svg width="753pt" height="231pt"
 viewBox="0.00 0.00 752.83 231.00" xmlns="http://www.w3.org/2000/svg" xmlns:xlink="http://www.w3.org/1999/xlink">
<g id="graph0" class="graph" transform="scale(1 1) rotate(0) translate(4 227)">
<title>%3</title>
<polygon fill="#333333" stroke="transparent" points="-4,4 -4,-227 748.8327,-227 748.8327,4 -4,4"/>
<text text-anchor="middle" x="372.4164" y="-9.2" font-family="Times,serif" font-size="16.00" fill="#ffffff">Network Map</text>
<!-- R5 -->
<g id="node1" class="node">
<title>R5</title>
<polygon fill="#006699" stroke="#006699" points="83.8327,-223 7.8327,-223 7.8327,-150 83.8327,-150 83.8327,-223"/>
<text text-anchor="middle" x="45.8327" y="-182.8" font-family="Helvetica,sans-Serif" font-size="14.00" fill="#ffffff">R5</text>
</g>
<!-- R4 -->
<g id="node2" class="node">
<title>R4</title>
<polygon fill="#006699" stroke="#006699" points="206.8327,-223 130.8327,-223 130.8327,-150 206.8327,-150 206.8327,-223"/>
<text text-anchor="middle" x="168.8327" y="-182.8" font-family="Helvetica,sans-Serif" font-size="14.00" fill="#ffffff">R4</text>
</g>
<!-- SW1 -->
<g id="node3" class="node">
<title>SW1</title>
<polygon fill="#006699" stroke="#006699" points="459.3327,-223 370.3327,-223 370.3327,-150 459.3327,-150 459.3327,-223"/>
<text text-anchor="middle" x="414.8327" y="-182.8" font-family="Helvetica,sans-Serif" font-size="14.00" fill="#ffffff">SW1</text>
</g>
<!-- R2 -->
<g id="node4" class="node">
<title>R2</title>
<polygon fill="#006699" stroke="#006699" points="636.8327,-99 560.8327,-99 560.8327,-26 636.8327,-26 636.8327,-99"/>
<text text-anchor="middle" x="598.8327" y="-58.8" font-family="Helvetica,sans-Serif" font-size="14.00" fill="#ffffff">R2</text>
</g>
<!-- R2&#45;&#45;SW1 -->
<g id="edge2" class="edge">
<title>R2&#45;&#45;SW1</title>
<path fill="none" stroke="#00ff00" stroke-dasharray="5,2" d="M560.6084,-95.1057C541.2369,-111.5198 520.7712,-128.6506 515.8327,-132 498.1062,-144.0227 477.4574,-155.5584 459.4664,-164.8961"/>
<text text-anchor="middle" x="583.8327" y="-120.8" font-family="Courier,monospace" font-size="14.00" fill="#ffffff"> &#160;&#160;&#160;&#160;&#160;&#160;&#160;&#160;&#160;&#160;&#160;</text>
<text text-anchor="middle" x="484.4664" y="-153.6961" font-family="Courier,monospace" font-size="14.00" fill="#ffffff">Eth0/2</text>
<text text-anchor="middle" x="535.6084" y="-83.9057" font-family="Courier,monospace" font-size="14.00" fill="#ffffff">Eth0/0</text>
</g>
<!-- SW2 -->
<g id="node7" class="node">
<title>SW2</title>
<polygon fill="#006699" stroke="#006699" points="705.3327,-223 616.3327,-223 616.3327,-150 705.3327,-150 705.3327,-223"/>
<text text-anchor="middle" x="660.8327" y="-182.8" font-family="Helvetica,sans-Serif" font-size="14.00" fill="#ffffff">SW2</text>
</g>
<!-- R2&#45;&#45;SW2 -->
<g id="edge3" class="edge">
<title>R2&#45;&#45;SW2</title>
<path fill="none" stroke="#00ff00" stroke-dasharray="5,2" d="M628.2759,-99.2843C632.1407,-105.0244 635.8038,-111.035 638.8327,-117 644.0471,-127.269 648.3343,-139.0192 651.6946,-149.9001"/>
<text text-anchor="middle" x="694.8327" y="-120.8" font-family="Courier,monospace" font-size="14.00" fill="#ffffff"> &#160;&#160;&#160;&#160;&#160;&#160;&#160;&#160;&#160;&#160;&#160;</text>
<text text-anchor="middle" x="622.6946" y="-138.7001" font-family="Courier,monospace" font-size="14.00" fill="#ffffff">Eth0/11</text>
<text text-anchor="middle" x="603.2759" y="-103.0843" font-family="Courier,monospace" font-size="14.00" fill="#ffffff">Eth0/1</text>
</g>
<!-- R3 -->
<g id="node5" class="node">
<title>R3</title>
<polygon fill="#006699" stroke="#006699" points="206.8327,-99 130.8327,-99 130.8327,-26 206.8327,-26 206.8327,-99"/>
<text text-anchor="middle" x="168.8327" y="-58.8" font-family="Helvetica,sans-Serif" font-size="14.00" fill="#ffffff">R3</text>
</g>
<!-- R3&#45;&#45;R5 -->
<g id="edge6" class="edge">
<title>R3&#45;&#45;R5</title>
<path fill="none" stroke="#00ff00" stroke-dasharray="5,2" d="M130.633,-73.9103C108.4122,-82.4102 81.5715,-96.1937 64.8327,-117 57.3055,-126.3564 52.7518,-138.4689 50,-149.9547"/>
<text text-anchor="middle" x="114.8327" y="-120.8" font-family="Courier,monospace" font-size="14.00" fill="#ffffff"> &#160;&#160;&#160;&#160;&#160;&#160;&#160;&#160;&#160;&#160;&#160;</text>
<text text-anchor="middle" x="25" y="-138.7547" font-family="Courier,monospace" font-size="14.00" fill="#ffffff">Eth0/0</text>
<text text-anchor="middle" x="105.633" y="-62.7103" font-family="Courier,monospace" font-size="14.00" fill="#ffffff">Eth0/2</text>
</g>
<!-- R3&#45;&#45;R4 -->
<g id="edge5" class="edge">
<title>R3&#45;&#45;R4</title>
<path fill="none" stroke="#00ff00" stroke-dasharray="5,2" d="M168.8327,-99.0334C168.8327,-115.0358 168.8327,-133.7778 168.8327,-149.7992"/>
<text text-anchor="middle" x="218.8327" y="-120.8" font-family="Courier,monospace" font-size="14.00" fill="#ffffff"> &#160;&#160;&#160;&#160;&#160;&#160;&#160;&#160;&#160;&#160;&#160;</text>
<text text-anchor="middle" x="143.8327" y="-138.5992" font-family="Courier,monospace" font-size="14.00" fill="#ffffff">Eth0/0</text>
<text text-anchor="middle" x="143.8327" y="-102.8334" font-family="Courier,monospace" font-size="14.00" fill="#ffffff">Eth0/1</text>
</g>
<!-- R3&#45;&#45;SW1 -->
<g id="edge4" class="edge">
<title>R3&#45;&#45;SW1</title>
<path fill="none" stroke="#00ff00" stroke-dasharray="5,2" d="M207.0003,-81.7389C251.1305,-103.9834 323.6665,-140.5463 370.3235,-164.0645"/>
<text text-anchor="middle" x="356.8327" y="-120.8" font-family="Courier,monospace" font-size="14.00" fill="#ffffff"> &#160;&#160;&#160;&#160;&#160;&#160;&#160;&#160;&#160;&#160;&#160;</text>
<text text-anchor="middle" x="345.3235" y="-152.8645" font-family="Courier,monospace" font-size="14.00" fill="#ffffff">Eth0/3</text>
<text text-anchor="middle" x="232.0003" y="-70.5389" font-family="Courier,monospace" font-size="14.00" fill="#ffffff">Eth0/0</text>
</g>
<!-- R1 -->
<g id="node6" class="node">
<title>R1</title>
<polygon fill="#006699" stroke="#006699" points="452.8327,-99 376.8327,-99 376.8327,-26 452.8327,-26 452.8327,-99"/>
<text text-anchor="middle" x="414.8327" y="-58.8" font-family="Helvetica,sans-Serif" font-size="14.00" fill="#ffffff">R1</text>
</g>
<!-- R1&#45;&#45;SW1 -->
<g id="edge1" class="edge">
<title>R1&#45;&#45;SW1</title>
<path fill="none" stroke="#00ff00" stroke-dasharray="5,2" d="M414.8327,-99.0334C414.8327,-115.0358 414.8327,-133.7778 414.8327,-149.7992"/>
<text text-anchor="middle" x="464.8327" y="-120.8" font-family="Courier,monospace" font-size="14.00" fill="#ffffff"> &#160;&#160;&#160;&#160;&#160;&#160;&#160;&#160;&#160;&#160;&#160;</text>
<text text-anchor="middle" x="389.8327" y="-138.5992" font-family="Courier,monospace" font-size="14.00" fill="#ffffff">Eth0/1</text>
<text text-anchor="middle" x="389.8327" y="-102.8334" font-family="Courier,monospace" font-size="14.00" fill="#ffffff">Eth0/0</text>
</g>
</g>
</svg>
