<?xml version="1.0" encoding="UTF-8" standalone="no"?>
<!DOCTYPE svg PUBLIC "-//W3C//DTD SVG 1.1//EN"
 "http://www.w3.org/Graphics/SVG/1.1/DTD/svg11.dtd">
<!-- Generated by graphviz version 2.40.1 (20161225.0304)
 -->
<!-- Title: %3 Pages: 1 -->
<svg width="386pt" height="231pt"
 viewBox="0.00 0.00 385.83 231.00" xmlns="http://www.w3.org/2000/svg" xmlns:xlink="http://www.w3.org/1999/xlink">
<g id="graph0" class="graph" transform="scale(1 1) rotate(0) translate(4 227)">
<title>%3</title>
<polygon fill="#333333" stroke="transparent" points="-4,4 -4,-227 381.8327,-227 381.8327,4 -4,4"/>
<text text-anchor="middle" x="188.9164" y="-9.2" font-family="Times,serif" font-size="16.00" fill="#ffffff">Network Map</text>
<!-- R1 -->
<g id="node1" class="node">
<title>R1</title>
<polygon fill="#006699" stroke="#006699" points="83.8327,-223 7.8327,-223 7.8327,-150 83.8327,-150 83.8327,-223"/>
<text text-anchor="middle" x="45.8327" y="-182.8" font-family="Helvetica,sans-Serif" font-size="14.00" fill="#ffffff">R1</text>
</g>
<!-- SW1 -->
<g id="node2" class="node">
<title>SW1</title>
<polygon fill="#006699" stroke="#006699" points="213.3327,-99 124.3327,-99 124.3327,-26 213.3327,-26 213.3327,-99"/>
<text text-anchor="middle" x="168.8327" y="-58.8" font-family="Helvetica,sans-Serif" font-size="14.00" fill="#ffffff">SW1</text>
</g>
<!-- SW1&#45;&#45;R1 -->
<g id="edge1" class="edge">
<title>SW1&#45;&#45;R1</title>
<path fill="none" stroke="#00ff00" stroke-dasharray="5,2" d="M124.1587,-76.4893C103.3819,-85.1046 79.9743,-98.179 64.8327,-117 57.3055,-126.3564 52.7518,-138.4689 50,-149.9547"/>
<text text-anchor="middle" x="114.8327" y="-120.8" font-family="Courier,monospace" font-size="14.00" fill="#ffffff"> &#160;&#160;&#160;&#160;&#160;&#160;&#160;&#160;&#160;&#160;&#160;</text>
<text text-anchor="middle" x="25" y="-138.7547" font-family="Courier,monospace" font-size="14.00" fill="#ffffff">Eth0/0</text>
<text text-anchor="middle" x="99.1587" y="-65.2893" font-family="Courier,monospace" font-size="14.00" fill="#ffffff">Eth0/1</text>
</g>
<!-- R3 -->
<g id="node3" class="node">
<title>R3</title>
<polygon fill="#006699" stroke="#006699" points="206.8327,-223 130.8327,-223 130.8327,-150 206.8327,-150 206.8327,-223"/>
<text text-anchor="middle" x="168.8327" y="-182.8" font-family="Helvetica,sans-Serif" font-size="14.00" fill="#ffffff">R3</text>
</g>
<!-- SW1&#45;&#45;R3 -->
<g id="edge3" class="edge">
<title>SW1&#45;&#45;R3</title>
<path fill="none" stroke="#00ff00" stroke-dasharray="5,2" d="M168.8327,-99.0334C168.8327,-115.0358 168.8327,-133.7778 168.8327,-149.7992"/>
<text text-anchor="middle" x="218.8327" y="-120.8" font-family="Courier,monospace" font-size="14.00" fill="#ffffff"> &#160;&#160;&#160;&#160;&#160;&#160;&#160;&#160;&#160;&#160;&#160;</text>
<text text-anchor="middle" x="143.8327" y="-138.5992" font-family="Courier,monospace" font-size="14.00" fill="#ffffff">Eth0/0</text>
<text text-anchor="middle" x="143.8327" y="-102.8334" font-family="Courier,monospace" font-size="14.00" fill="#ffffff">Eth0/3</text>
</g>
<!-- R2 -->
<g id="node4" class="node">
<title>R2</title>
<polygon fill="#006699" stroke="#006699" points="329.8327,-223 253.8327,-223 253.8327,-150 329.8327,-150 329.8327,-223"/>
<text text-anchor="middle" x="291.8327" y="-182.8" font-family="Helvetica,sans-Serif" font-size="14.00" fill="#ffffff">R2</text>
</g>
<!-- SW1&#45;&#45;R2 -->
<g id="edge2" class="edge">
<title>SW1&#45;&#45;R2</title>
<path fill="none" stroke="#00ff00" stroke-dasharray="5,2" d="M213.4493,-77.7075C233.1697,-86.4447 255.1616,-99.2699 269.8327,-117 277.5784,-126.3607 282.6086,-138.4743 285.8706,-149.9598"/>
<text text-anchor="middle" x="327.8327" y="-120.8" font-family="Courier,monospace" font-size="14.00" fill="#ffffff"> &#160;&#160;&#160;&#160;&#160;&#160;&#160;&#160;&#160;&#160;&#160;</text>
<text text-anchor="middle" x="260.8706" y="-138.7598" font-family="Courier,monospace" font-size="14.00" fill="#ffffff">Eth0/0</text>
<text text-anchor="middle" x="238.4493" y="-66.5075" font-family="Courier,monospace" font-size="14.00" fill="#ffffff">Eth0/2</text>
</g>
</g>
</svg>
